PathFileType	4	(X/Y/Z)	57_1_53_p1_0-186_filt_butterworth.trc
DataRate	CameraRate	NumFrames	NumMarkers	Units	OrigDataRate	OrigDataStartFrame	OrigNumFrames
41.0	41.0	5	27	m	41.0	93	186
Frame#	Time	RHip			RKnee			RAnkle			RBigToe			RSmallToe			RHeel			LHip			LKnee			LAnkle			LBigToe			LSmallToe			LHeel			Neck			Head			Nose			RShoulder			RElbow			RWrist			RThumb			RIndex			RPinky			LShoulder			LElbow			LWrist			LThumb			LIndex			LPinky			
		X1	Y1	Z1	X2	Y2	Z2	X3	Y3	Z3	X4	Y4	Z4	X5	Y5	Z5	X6	Y6	Z6	X7	Y7	Z7	X8	Y8	Z8	X9	Y9	Z9	X10	Y10	Z10	X11	Y11	Z11	X12	Y12	Z12	X13	Y13	Z13	X14	Y14	Z14	X15	Y15	Z15	X16	Y16	Z16	X17	Y17	Z17	X18	Y18	Z18	X19	Y19	Z19	X20	Y20	Z20	X21	Y21	Z21	X22	Y22	Z22	X23	Y23	Z23	X24	Y24	Z24	X25	Y25	Z25	X26	Y26	Z26	X27	Y27	Z27	
93	2.268292682926829	0.2678895216279856	0.5825511345914297	0.9848262886050956	0.27334431306163465	0.7569370906851757	1.3884867388780875	0.29557239160937526	0.9387592233570414	1.775859231135071	0.25314448747414725	0.7103680284273814	1.8133627776458021	0.3116025310446	0.74014020380961	1.803338965500728	0.2694368562226591	1.0361313765293807	1.8172991599213821	0.06449834002067949	0.5629130663944011	0.9973987056897221	0.05908150025320534	0.7397425755307797	1.3845417387228798	0.06724752636874343	0.881685937442575	1.7700366726725627	0.08787682391615995	0.6865544088574144	1.8090466945442745	0.034298469507368104	0.7314540778082969	1.8192354808395417	0.08679019575738296	0.9608937431441231	1.8206982411440866	0.1401484686749054	0.4010525434197062	0.44834228037140855	0.1285593478996001	0.2955171442542368	0.22265489816876602	0.12910118759897113	0.2744685592615672	0.3667687025696682	0.3051768345365191	0.44026282749433054	0.5086947892639762	0.34926928098507487	0.4485657104915688	0.7713651061381831	0.18739539423057514	0.43212330641357105	0.9594254927982282	0.13957260443803943	0.44242297829287525	1.0510638050168666	0.1322667170154468	0.43158803130920265	1.0633277412141684	0.13670346160493288	0.4454505559834384	1.0670022829415862	-0.011195964445516206	0.43984175749639676	0.5220840488992562	-0.015388032410212	0.4440325666296675	0.7755349017410043	0.09376057724927983	0.43212386373128364	0.973539975936345	0.16392836119872609	0.4340275220330379	1.0429173968645153	0.1638149007950524	0.4405565084425316	1.0781681472834075	0.12283447317845687	0.4466493380160036	1.0693093232277449
94	2.292682926829268	0.267889177636373	0.582551484745355	0.9848211308776623	0.27317393244601634	0.7578081115951254	1.3886380752293266	0.29553626775374986	0.9385804284227941	1.7756163520178574	0.253242737390204	0.7123638709924298	1.8139941795791574	0.31158590321426116	0.7397989566094956	1.8032447176342334	0.2692428087283064	1.0376801597559664	1.8179096020430534	0.06449971735163598	0.5629306791801584	0.9973952604364453	0.05905539603865634	0.7398920999864094	1.3848559777449267	0.06783698023778711	0.8834989287263457	1.7727197732173239	0.08634546819325097	0.6863418988095797	1.807660045381016	0.03423974357452356	0.7315531649064335	1.8194549821301345	0.0854514977897047	0.9594861838360924	1.8201631501565183	0.13922388225884696	0.39523633132108327	0.44939253507578036	0.1285820009757662	0.29553599079891746	0.22265152460935295	0.129118907315203	0.27443413088868795	0.36677251675092737	0.30512669259387976	0.4402087568746368	0.5087107910690939	0.34779665005689253	0.4554757325712555	0.7712769329623889	0.1873808127735721	0.4320604926063871	0.9594183966749954	0.13962109976682244	0.44261371416045425	1.051047609792404	0.13219309630047557	0.4315502522409266	1.0632092812049265	0.13666696993495034	0.4452923358243197	1.06689940396644	-0.011197257015846796	0.43979465220822356	0.5220844703745855	-0.015426103036548264	0.4438886303260011	0.7755002037862764	0.09395767139368358	0.43223840649632417	0.9735329087049392	0.1639387167056517	0.4345795546410399	1.0428538315298503	0.16379980322904372	0.4406563631781615	1.0793541129133009	0.12279956732267969	0.44648512988886696	1.0692444033706843
95	2.317073170731707	0.26788854908393483	0.5825661114750644	0.9848610866321346	0.27302920996261476	0.7582664892407156	1.388841798369203	0.2956110349670252	0.938702080225702	1.7758018155951838	0.25326454352150024	0.7138045156778989	1.8133352033840895	0.31133081741348284	0.7396869969158919	1.8031168487875946	0.2701517189088235	1.0375795080269445	1.815369482952926	0.0644916117402792	0.5630337275859042	0.9973891618979673	0.05914029889124456	0.7413346085920841	1.387589173856841	0.06817442475207258	0.8845609463893861	1.7742758787385022	0.0880277968110966	0.6872642913364142	1.8070897892225786	0.034230002247694354	0.7308367308934345	1.8176391622308032	0.08506257970748733	0.9600306502834781	1.8189534283380289	0.13769898880013448	0.39173800718211843	0.4500741619173494	0.12859127270175186	0.29552893506087385	0.22264736864770912	0.12917856764828084	0.2743652981798792	0.36680399526172913	0.30525509126873507	0.4402051361286047	0.5098256280607135	0.3468653586091619	0.45982075991695115	0.7712764714894998	0.1873409343119107	0.43215213947869613	0.9594595467031461	0.1384678653088542	0.4420190336375262	1.0511756816583995	0.132184496980931	0.43161666920903236	1.0633964006022325	0.13681343665770945	0.44549799977487753	1.0672063010419128	-0.011185539077611429	0.4397665155935865	0.5220857028160997	-0.015451996583089284	0.4439154700634136	0.7755145322772005	0.09396164954609634	0.43229808152362087	0.9735350198880633	0.16388307058827395	0.433605185472649	1.0427888551535103	0.16364891681697907	0.44065983443186596	1.079205770885489	0.12282979406994465	0.4464512257767228	1.0694493526079298
96	2.341463414634146	0.2678949416061572	0.5825743847264406	0.9849303059619379	0.2729600589409012	0.758259565977501	1.3889650765397357	0.2956440819596465	0.9386589938278365	1.7757375898491206	0.253203492047285	0.713082645464057	1.8120729004913416	0.31132517614762	0.7398604726659127	1.8029178902151535	0.2709622320243532	1.0355488293244424	1.8113025405906824	0.06448956166291145	0.5631462269810076	0.9974147047252971	0.05949817311785453	0.7432187320272787	1.3909641854563886	0.0682296320655995	0.8847250829265533	1.7745763901272116	0.09219676918504281	0.6893364960931636	1.8095703328339303	0.03423672025588441	0.7302854000745245	1.8163005961909144	0.08493137508466098	0.9610037116833656	1.8170590365662407	0.13679695734214942	0.39156667971188286	0.4501144125275639	0.12858531957610458	0.2954854476587731	0.2226447811062598	0.12924538343148245	0.2743016926880585	0.3668437208738397	0.3054659827568112	0.4402245422908342	0.5116982202447206	0.3468049571806656	0.46004406146156906	0.7713125675611713	0.18730047105837	0.4323436911779798	0.9595114653982589	0.13647318463964886	0.4409842545010775	1.0513074644997848	0.13220003942166295	0.4316311075596368	1.0635741718167826	0.1370249670387937	0.4458535644864314	1.0676926623607548	-0.011176802123686116	0.4397329515212516	0.5220821731691527	-0.015470216794487245	0.4440967406603503	0.7755790119013695	0.09391009764985861	0.4322955237039768	0.9735366237080676	0.16351836754484397	0.43278558884168417	1.0431233414023369	0.16333970305804457	0.4406139298382592	1.078077418058917	0.12298652740170954	0.447016767734627	1.0696973457839676
97	2.365853658536585	0.2679037512159966	0.5825715856036915	0.9849562052632405	0.27296260921257287	0.7581811801464812	1.38897807517094	0.2953149097133193	0.9376784231971202	1.774169525545904	0.2531057518529539	0.7114467530992367	1.8117419476721124	0.31144988674300716	0.7402738105295742	1.8028669006965212	0.2710399096413685	1.0340823948727953	1.8100044431677786	0.06449342673700864	0.563157962762036	0.9974526840939891	0.060011024596683116	0.7438168270129353	1.3917203321049265	0.06815159141318482	0.8845046300339747	1.7743111335288346	0.09375475624925696	0.6906340294543539	1.8128830900038189	0.03425642820337784	0.7302143832164871	1.816249559944628	0.084967477224214	0.961204985013892	1.8158951088057722	0.13676720441849827	0.3919966905010136	0.4498475662648767	0.12857946455489802	0.2954573192028506	0.222655862052765	0.12927693143618252	0.27429411423801864	0.3668531327873497	0.3055820478214747	0.44030328818168735	0.5128398556725507	0.3469486504853256	0.45932556525646356	0.7713078384506397	0.1874355882851468	0.43297079290115914	0.9595242261646808	0.13537541670752867	0.44070784291539333	1.0513539315917013	0.13216635102110433	0.431452676733253	1.0634031908873771	0.13713991000479672	0.4460129410869796	1.0679583055811592	-0.011182388988647814	0.4397198496348345	0.5220730355063109	-0.01551257073010889	0.44418431374445744	0.7755752647075487	0.0938878367679519	0.4322793618442279	0.9735107706896884	0.16328542840680266	0.43250409538497797	1.0431773837802691	0.16298818542962362	0.44053024143341923	1.0773899412622554	0.12296275896067785	0.446885704154332	1.0697385765241263
